<?xml version="1.0" standalone="no"?>
<!DOCTYPE svg PUBLIC "-//W3C//DTD SVG 1.1//EN" "http://www.w3.org/Graphics/SVG/1.1/DTD/svg11.dtd" >
<svg xmlns="http://www.w3.org/2000/svg">
<metadata>
This is a custom SVG font generated by IcoMoon.
<iconset grid="16"></iconset>
</metadata>
<defs>
<font id="ArtbeesWPTokens" horiz-adv-x="512" >
<font-face units-per-em="512" ascent="480" descent="-32" />
<missing-glyph horiz-adv-x="512" />
<glyph unicode="&#x25a0;" d="M 281.389-22.995L 127.43,127.698L 32.966,127.698 C-0.544,127.698,0.00,158.404,0.00,158.404l0.00,129.75 c0.00,31.846, 31.644,31.92, 31.644,31.92
			l 96.315,0.00 L 277.583,470.977C 314.062,500.00, 319.435,448.00, 319.435,448.00l0.00-448.094 C 319.435-52.50, 281.389-22.995, 281.389-22.995zM 481.769,129.395c0.00,0.00-34.104-53.448-60.354-26.641c0.00,0.00-15.073,15.084, 1.948,32.105c0.00,0.00, 92.473,75.307, 12.801,165.903
		c0.00,0.00-36.662,27.404-11.813,47.19c0.00,0.00, 21.818,23.547, 67.755-51.099C 492.103,296.854, 540.41,217.076, 481.769,129.395zM 411.811,152.665c0.00,0.00-31.166-40.296-53.553-17.907c0.00,0.00-14.241,13.911-1.707,31.221c0.00,0.00, 73.949,52.188, 5.84,110.24
		c0.00,0.00-22.829,19.149-2.229,39.748c0.00,0.00, 17.614,18.796, 45.971-14.935C 406.133,301.033, 477.126,233.694, 411.811,152.665z" data-tags="posttype_sound" />
<glyph unicode="&#x25a1;" d="M 468.013-32.00l-424.026,0.012C 15.00-31.988,0.00-18.50,0.00,10.999L0.00,307.982 C0.00,342.00, 11.50,351.969, 43.986,351.969l 115.597,0.00 L 159.583,453.665 
		c0.00,13.904, 12.895,26.792, 24.804,26.792l 136.195,0.00 c 19.911,0.00, 31.894-12.888, 31.894-28.78l0.00-99.708 l 117.537,0.00 
		c 30.32,0.00, 41.987-13.969, 41.987-41.987l0.00-297.983 C 512.00-21.00, 499.50-32.00, 468.013-32.00z M 319.306,447.97L 192.229,447.97 l0.00-96.00 l 127.064,0.00 L 319.306,447.97z" data-tags="posttype_portfolio" />
<glyph unicode="&#x25a2;" d="M 363.157,480.00l 8.973,0.00 c 17.37,0.00, 24.431-9.76, 24.431-9.76l 72.705-71.105
		c 6.792-8.935, 9.364-16.531, 10.266-22.071l0.00-9.398 c0.00-0.031-0.048-0.16-0.048-0.16l 0.048-0.566l0.00-346.47 
		c0.00-29.532-28.623-53.469-58.149-53.469L 117.931-32.999 c-29.54,0.00-53.47,23.937-53.47,53.469L 64.461,426.543 C 64.46,456.058, 88.391,480.00, 117.931,480.00
		l 237.741,0.00 L 363.157,480.00 z M 384.00,383.651L 160.00,383.651 l0.00-63.544 l 224.00,0.00 L 384.00,383.651 z M 384.00,255.878L 160.00,255.878 l0.00-63.544 l 224.00,0.00 L 384.00,255.878 z M 384.00,127.878L 160.00,127.878 l0.00-63.544 l 224.00,0.00 L 384.00,127.878 z
		" data-tags="posttype_text" />
<glyph unicode="&#x25a3;" d="M 159.372-23.145c0.00,8.354, 8.318,9.355, 8.318,9.355c 14.82,0.00, 18.465,15.208, 18.465,15.208
		c 3.775,10.24, 4.907,53.008, 5.287,62.762L 20.151,64.18 c-11.229,0.00-20.331,9.113-20.331,20.341L-0.18,459.669 C-0.18,470.903, 8.922,480.00, 20.151,480.00l 471.191,0.00 
		c 11.229,0.00, 20.331-9.097, 20.331-20.331l0.00-375.147 c0.00-11.228-9.103-20.341-20.331-20.341L 319.456,64.181 
		c 0.662-54.875, 8.234-63.036, 8.234-63.036c 10.733-13.971, 16.586-15.114, 16.586-15.114c 8.895-1.906, 7.747-10.24, 7.747-10.24
		c0.00-5.046-5.163-7.571-6.77-7.79c-2.005,0.062-4.374,0.00-4.374,0.00L 172.688-31.999 C 158.395-32.00, 159.372-23.145, 159.372-23.145
		 M 479.715,448.084L 31.778,448.084 l0.00-287.277 l 447.937,0.00 L 479.715,448.084 L 479.715,448.084z" data-tags="posttype_video" />
<glyph unicode="&#x25a4;" d="M 492.929-32.00L 25.07-32.00 C 9.877-32.00,0.00-22.122,0.00-9.94L0.00,458.94 C0.00,471.124, 9.877,481.00, 25.07,481.00l 467.858,0.00 C 502.122,481.00, 512.00,471.123, 512.00,458.94
			l0.00-468.88 C 512.00-22.122, 502.122-32.00, 492.929-32.00z M 447.835,394.586c0.00,12.194-9.877,22.071-22.069,22.071L 86.693,416.657 
			c-12.193,0.00-22.07-9.877-22.07-22.071l0.00-340.238 c0.00-12.193, 9.877-22.07, 22.07-22.07l 339.072,0.00 c 12.192,0.00, 22.069,9.877, 22.069,22.07
			L 447.835,394.586L 447.835,394.586z M 360.453,96.127l-264.525-0.22l 56.678,70.866c 45.509,55.85, 60.742,4.836, 60.742,4.836
			c 8.485-36.109, 42.45,19.367, 42.45,19.367l 25.642,45.791c 25.061,42.399, 59.297,3.447, 59.297,3.447l 48.122-57.528
			c 28.642-33.186, 27.045-47.361, 27.045-47.361C 415.903,86.379, 360.453,96.127, 360.453,96.127z M 176.456,256.808
			c-26.203,0.00-47.456,21.24-47.456,47.468c0.00,26.215, 21.252,47.455, 47.456,47.455c 26.216,0.00, 47.468-21.24, 47.468-47.455
			C 223.923,278.048, 202.672,256.808, 176.456,256.808z" data-tags="posttype_image" />
<glyph unicode="&#x25a5;" d="M 468.205,480.00L 45.357,480.00 C 20.58,480.00, 0.493,459.958, 0.493,435.155l0.00-422.349 C 0.493-11.90, 20.58-32.00, 45.357-32.00l 422.848,0.00 
		c 24.783,0.00, 44.857,20.10, 44.857,44.807L 513.062,435.155 C 513.062,459.958, 492.988,480.00, 468.205,480.00z M 434.762,133.549l-75.088-76.502
		c-10.171-12.54-19.045-11.624-19.045-11.624c-40.609,0.00-36.676,36.153-36.676,36.153c-0.069,15.636, 9.801,22.431, 9.801,22.431
		l 24.152,23.203l-167.379-0.024c-1.643-0.007-3.182,0.082-4.667,0.218c-2.074-0.287-3.392-0.292-3.392-0.292
		c-33.796-0.15-34.053,29.405-34.053,29.405l-0.031,119.494l-22.339-22.183c-12.619-12.425-23.136-12.562-23.136-12.562
		c-34.245,0.00-36.611,33.028-36.611,33.028c-0.053,14.229, 9.178,20.752, 9.178,20.752l 78.514,79.187
		c 10.16,12.346, 24.15,13.618, 24.149,13.618c 18.604,0.00, 28.952-14.979, 28.952-14.979l 76.502-75.088
		c 12.54-10.171, 11.624-19.045, 11.624-19.045c0.00-40.609-36.153-36.676-36.153-36.676c-15.636-0.069-22.431,9.801-22.431,9.801
		l-23.203,24.152l 0.018-83.786l 144.452,0.026l-22.183,22.339c-12.425,12.619-12.562,23.136-12.562,23.136
		c0.00,34.245, 33.028,36.611, 33.028,36.611c 14.229,0.053, 20.752-9.178, 20.752-9.178l 79.187-78.514
		c 12.346-10.16, 13.618-24.15, 13.618-24.149C 449.741,143.897, 434.762,133.549, 434.762,133.549z" data-tags="lightbox_expand" />
<glyph unicode="&#x25a6;" d="M 32.00,53.273L 32.00,394.267 c0.00,0.00,0.00,131.233, 134.67,66.274l 242.836-148.706
			c0.00,0.00, 161.078-85.842-3.004-182.14L 183.234-8.436C 183.234-8.436, 32.00-88.236, 32.00,53.273z" data-tags="play" />
<glyph unicode="&#x25ab;" d="M 289.659,74.234C 145.041-89.49, 96.463-64.727, 143.945,148.493c-200.429,86.938-191.91,140.805, 25.581,161.544
			c 20.75,217.48, 74.583,226.033, 161.532,25.581c 213.254,47.482, 238.007-1.084, 74.249-145.724
			C 516.351,1.764, 477.812-36.797, 289.659,74.234z" data-tags="star" />
<glyph unicode="&#x25ac;" d="M 126.629,96.228L 65.30,383.362L 31.00,383.362 L-1.50,415.98l 83.042,0.00 l 27.079-64.282L 513.00,351.698 
			l-64.937-191.358l-288.55,0.00 l-0.363-31.592l 288.887,0.00 l-1.00-32.619L 126.629,96.228zM 384.896,64.758c 17.883,0.00, 32.38-14.497, 32.38-32.38
			c0.00-17.881-14.497-32.378-32.38-32.378c-17.881,0.00-32.378,14.497-32.378,32.378C 352.519,50.261, 367.016,64.758, 384.896,64.758zM 223.999,64.758c 17.883,0.00, 32.38-14.497, 32.38-32.38
			c0.00-17.881-14.497-32.378-32.38-32.378c-17.881,0.00-32.378,14.497-32.378,32.378C 191.621,50.261, 206.118,64.758, 223.999,64.758z" data-tags="shopping" />
<glyph unicode="&#x25ae;" d="M 384.267,96.648L 384.267-32.00 L-1.541-32.00 L-1.541,351.797 l 129.657,0.00 L 128.116,481.031 L 511.49,481.031 l0.00-384.383 L 384.267,96.648 z
			 M 127.434,223.882L 63.74,223.882 L 63.74,95.27 l0.00-60.988 l 61.989,0.00 l 194.575,0.00 l0.00,62.367 l-192.87,0.00 L 127.434,223.882 z M 447.547,351.797l-255.15,0.00 L 192.397,159.60 l 255.15,0.00 L 447.547,351.797 z" data-tags="app" />
<glyph unicode="&#x25af;" d="M 96.50,224.497c0.00,0.00, 37.981,14.037, 73.009,44.608c0.00,0.00, 65.693,40.282, 98.421,74.264
			c0.00,0.00, 50.351,56.132, 50.351,87.602c0.00,0.00-1.259,49.092, 31.47,49.092c0.00,0.00, 33.986,7.552, 33.986-59.161c0.00,0.00-0.036-59.906-17.659-97.67
			c0.00,0.00-13.91-31.065-13.91-66.732l 7.247,0.077c0.00,0.00, 7.464,1.084, 26.49,0.666c 0.579,0.027, 1.162,0.043, 1.75,0.043l 92.565,0.00 
			c 19.932,0.00, 32.089-13.157, 32.089-33.088c0.00-28.031-32.309-31.761-67.476-31.761C 460.00,190.50, 479.891,192.00, 479.891,159.00
			c0.00-31.00-31.891-31.664-65.089-31.664l0.00,0.00c 29.872,0.00, 32.855-9.836, 32.855-31.485c0.00-37.018-41.156-32.089-61.089-32.089l-3.525,0.00 
			c 12.063,0.00, 33.555,0.558, 33.555-31.674c0.00-29.255-13.156-32.088-33.089-32.088l-45.365,0.00 c-2.905,0.00-5.727-0.646-8.435,0.001
			c-42.467,0.741-121.542-2.501-167.089,15.574c0.00,0.00-64.453,18.259-96.468,15.711L0.00,31.286 L0.00,223.828 L 96.50,224.497z" data-tags="like" />
<glyph unicode="&#x25b0;" d="M 160.00,447.809l0.00-479.143 l 111.522,128.225L 383.816-32.00L 383.816,448.809 
			c0.00,0.00, 4.434,31.857-32.365,31.857L 191.627,480.666 C 191.627,480.666, 160.00,479.896, 160.00,447.809z" data-tags="tag2" />
<glyph unicode="&#x25b1;" d="M 479.39,32.456L 35.90,32.456 c-34.414,0.00-36.90,29.618-36.90,29.618L-1.00,335.292 
			c0.00,18.423, 12.011,17.423, 12.011,17.423l 53.001,0.00 L 64.012,402.173 c0.00,10.404, 9.613,14.408, 9.613,14.408l 417.184,0.00 
			c 20.81,0.00, 21.602-12.802, 21.602-12.802l0.00-339.314 C 512.41,28.75, 479.39,32.456, 479.39,32.456z M 31.977,320.065l0.00-239.01 
			c0.00,0.00-0.143-17.602, 16.19-17.602c0.00,0.00, 15.715-0.953, 15.715,17.404l 0.803,239.208L 31.977,320.065 z M 480.809,383.85L 95.557,383.85 L 95.557,64.12 l 369.438,0.00 
			c0.00,0.00, 15.813-3.62, 15.813,19.203L 480.808,383.85 z M 287.624,223.988l 160.649,0.00 L 448.273,95.45 L 287.624,95.45 L 287.624,223.988 z M 288.00,288.00l 160.00,0.00 l0.00-32.00 L 288.00,256.00 L 288.00,288.00 z M 288.00,352.00l 160.00,0.00 
			l0.00-32.00 L 288.00,320.00 L 288.00,352.00 z M 127.00,128.00l 129.00,0.00 l0.00-32.00 L 127.00,96.00 L 127.00,128.00 z M 127.00,192.00l 129.00,0.00 l0.00-32.00 L 127.00,160.00 L 127.00,192.00 z M 126.833,352.00l 130.461,0.00 l0.00-128.562 L 126.833,223.438 L 126.833,352.00 z" data-tags="news" />
<glyph unicode="&#x25c4;" d="M 257.567-32.00C 117.047-32.00, 2.135,84.017, 2.135,224.537
			S 117.047,478.97, 257.567,478.97S 512.00,365.058, 512.00,224.537S 398.088-32.00, 257.567-32.00z M 257.601,403.802
			c-99.015,0.00-180.276-80.262-180.276-179.276c0.00-99.016, 81.261-181.381, 180.276-181.381c 99.015,0.00, 179.286,82.365, 179.286,181.381
			C 436.887,323.541, 356.615,403.802, 257.601,403.802z M 224.077,191.568l0.00,57.805 L 224.077,351.894 l 64.579,0.00 l0.00-95.748 l 63.999,0.00 l0.00-64.578 l-70.784,0.00 L 224.077,191.568 z
			" data-tags="time" />
<glyph unicode="&#x25c3;" d="M 384.358,222.098L 254.525,350.898L 384.532,480.00l 127.961-129.859L 384.358,222.098z
			 M 224.163,320.094L 352.00,192.00L 224.172,31.452L 33.324-33.00L 0.675-0.097L 64.344,193.09c0.00,0.00, 61.646,48.24, 159.494,126.816
			L 224.163,320.094z M 159.453,127.625L 96.345,127.625 L 96.345,63.50 l 63.108,0.00 L 159.453,127.625 z" data-tags="write" />
<glyph unicode="&#x25c2;" d="M 447.617,223.312l0.00-186.749 c0.00,0.00-5.117-67.835-66.02-67.835L 128.882-31.272 
			c0.00,0.00-64.659,15.936-64.659,70.835L 64.223,222.312 l-65.004,0.588L 255.451,478.326l 256.212-255.014L 447.617,223.312 z M 320.411,223.435L 191.236,223.435 
			l0.00-159.209 l 129.175,0.00 L 320.411,223.435 z" data-tags="home" />
<glyph unicode="&#x25bf;" d="M 36.879,383.929L 512.00,383.929 l-256.16-159.91L 0.54,383.929 M 256.734,158.75l 249.451,156.401
			c 2.707,1.555, 4.958,3.588, 6.742,5.927l0.00-220.002 c0.00-20.073-16.268-36.34-36.341-36.34L 36.879,64.736 c-20.072,0.00-36.339,16.267-36.339,36.34
			L 0.54,320.802 L 256.734,158.75" data-tags="message" />
<glyph unicode="&#x25bd;" d="M 441.241,64.277c-72.856,0.00-131.153,95.611-131.153,95.611l-52.224,0.00 l-1.517,0.00 
			l-52.224,0.00 c0.00,0.00-58.297-96.611-131.155-96.611c0.00,0.00-72.857,0.229-72.857,94.295c0.00,0.00,0.00,262.168, 140.421,262.168
			c0.00,0.00, 41.063,2.652, 70.206-25.169c0.00,0.00, 17.689-18.416, 46.367-18.75c 28.677,0.335, 46.366,18.75, 46.366,18.75
			c 29.143,27.822, 70.206,25.169, 70.206,25.169C 514.10,419.74, 514.10,157.571, 514.10,157.572
			C 514.10,63.507, 441.241,64.277, 441.241,64.277z M 96.717,256.156c-17.662,0.00-31.997-14.323-31.997-31.998
			c0.00-17.674, 14.335-31.995, 31.997-31.995c 17.663,0.00, 31.998,14.321, 31.998,31.995C 128.715,241.833, 114.38,256.156, 96.717,256.156z
			 M 158.634,321.174c-17.662,0.00-31.997-14.323-31.997-31.998c0.00-17.674, 14.335-31.995, 31.997-31.995
			c 17.663,0.00, 31.998,14.321, 31.998,31.995C 190.632,306.851, 176.297,321.174, 158.634,321.174z M 447.34,255.659
			c0.00,15.886, 2.426,32.381-21.31,32.381l-10.207,0.00 l0.00,9.218 c0.00,12.333-7.184,23.323-24.11,23.323l-17.344,0.00 
			c-15.709,0.00-22.324-9.99-22.324-22.323l0.00-10.226 l-0.697,0.00 c-29.858,0.00-30.363-13.133-30.363-31.368l0.00-0.465 
			c0.00-14.129, 0.505-30.991, 30.363-30.991l 0.697,0.00 l0.00-10.225 c0.00-12.333, 9.989-22.312, 22.324-22.312l 17.344,0.00 
			c 12.324,0.00, 24.11,9.979, 24.11,22.312l0.00,10.225 l 10.207,0.00 c 16.019,0.00, 21.31,11.451, 21.31,31.127L 447.34,255.659 z" data-tags="game" />
<glyph unicode="&#x25cf;" d="M 511.558,226.674C 511.558,6.50, 343.25-33.00, 343.25-33.00
			c-62.868,0.976-56.083,41.89-56.083,41.89c0.00,27.066, 30.919,43.514, 30.919,43.514c 96.708,39.649, 93.624,118.959, 93.624,118.959
			c0.00,23.471-21.953,20.492-21.953,20.492l0.00,0.00l-66.779,0.00 c-19.232,0.00-34.819,15.592-34.819,34.819L 288.102,445.19
			C 288.102,464.42, 303.688,480.00, 322.921,480.00L 476.68,480.00 c 19.241,0.00, 34.821-15.58, 34.821-34.81L 511.558,226.674
			C 512.084,228.165, 512.207,224.887, 511.558,226.674zM 224.604,226.674C 224.604,6.50, 56.297-33.00, 56.297-33.00
			c-62.868,0.976-56.083,41.89-56.083,41.89c0.00,27.066, 30.919,43.514, 30.919,43.514c 96.708,39.649, 93.624,118.959, 93.624,118.959
			c0.00,23.471-21.953,20.492-21.953,20.492l0.00,0.00L 36.024,191.855 c-19.232,0.00-34.819,15.592-34.819,34.819L 1.148,445.19
			C 1.148,464.42, 16.735,480.00, 35.968,480.00l 153.759,0.00 c 19.241,0.00, 34.821-15.58, 34.821-34.81L 224.604,226.674
			C 225.131,228.165, 225.254,224.887, 224.604,226.674z" data-tags="quotation" />
<glyph unicode="&#x25ce;" d="M 463.198,315.166l-71.639-59.408c-8.105-5.793-16.603-28.072-21.247-47.678
			c-8.812-50.913-35.991-74.401-82.229-80.584l0.00-95.041 l 67.96,0.00 c 15.594,0.00, 28.236-16.643, 28.236-32.238
			c0.00-15.595-12.643-33.237-28.236-33.237L 155.69-33.02 c-15.595,0.00-28.236,17.643-28.236,33.237c0.00,15.596, 12.642,32.238, 28.236,32.238
			l 67.946,0.00 l0.00,95.701 c-46.803,7.01-75.803,31.844-81.952,79.931c-4.644,19.606-13.14,41.878-21.245,47.671l-71.639,59.408
			C 21.059,329.504, 2.093,358.455, 2.093,391.837C 2.093,439.475, 40.711,480.00, 88.349,480.00c 39.651,0.00, 56.534-22.38, 70.32-31.724l 194.663,0.00 
			C 367.117,457.62, 384.00,480.00, 423.652,480.00c 47.637,0.00, 86.254-40.525, 86.254-88.163C 509.906,358.455, 490.941,329.504, 463.198,315.166z
			 M 90.507,416.76c0.00,0.00-25.922,1.711-25.922-36.794c0.00,0.00-4.435-37.496, 63.132-60.599L 127.717,380.821 C 127.717,380.821, 127.281,416.76, 90.507,416.76
			z M 421.493,416.50c-36.774,0.00-34.21-21.679-34.21-21.679l0.00-73.455 c 58.551,0.00, 60.717,61.467, 60.717,61.467
			C 448.00,416.167, 421.493,416.50, 421.493,416.50z" data-tags="cup" />
<glyph unicode="&#x25cd;" d="M 492.929-32.00L 25.07-32.00 C 9.877-32.00,0.00-22.122,0.00-9.94L0.00,458.94 C0.00,471.124, 9.877,481.00, 25.07,481.00
			l 467.858,0.00 C 502.122,481.00, 512.00,471.123, 512.00,458.94L 512.00-9.94 C 512.00-22.122, 502.122-32.00, 492.929-32.00z M 447.835,394.586
			c0.00,12.194-9.877,22.071-22.069,22.071L 86.693,416.657 c-12.193,0.00-22.07-9.877-22.07-22.071l0.00-340.238 c0.00-12.194, 9.877-22.071, 22.07-22.071
			l 339.072,0.00 c 12.192,0.00, 22.069,9.877, 22.069,22.071L 447.834,394.586 z M 360.453,96.127l-264.525-0.22l 56.678,70.867
			c 45.509,55.849, 60.742,4.836, 60.742,4.836c 8.485-36.11, 42.45,19.366, 42.45,19.366l 25.642,45.791
			c 25.06,42.399, 59.296,3.447, 59.296,3.447l 48.122-57.529c 28.642-33.185, 27.045-47.361, 27.045-47.361
			C 415.903,86.379, 360.453,96.127, 360.453,96.127z M 176.456,256.808c-26.203,0.00-47.456,21.24-47.456,47.468
			c0.00,26.215, 21.252,47.455, 47.456,47.455c 26.216,0.00, 47.468-21.24, 47.468-47.455C 223.923,278.048, 202.672,256.808, 176.456,256.808z" data-tags="picture" />
<glyph unicode="&#x25ca;" d="M 281.389-22.995L 127.43,127.698L 32.966,127.698 C-0.544,127.698,0.00,158.404,0.00,158.404
			l0.00,129.75 C0.00,320.00, 31.644,320.074, 31.644,320.074l 96.315,0.00 L 277.583,470.977C 314.062,500.00, 319.435,448.00, 319.435,448.00l0.00-448.094 
			C 319.435-52.50, 281.389-22.995, 281.389-22.995zM 481.769,129.395c0.00,0.00-34.104-53.449-60.354-26.641c0.00,0.00-15.073,15.084, 1.948,32.105c0.00,0.00, 92.473,75.307, 12.801,165.903
		c0.00,0.00-36.662,27.404-11.813,47.19c0.00,0.00, 21.818,23.547, 67.754-51.099C 492.103,296.854, 540.41,217.076, 481.769,129.395zM 411.811,152.665c0.00,0.00-31.166-40.296-53.553-17.907c0.00,0.00-14.241,13.911-1.707,31.221c0.00,0.00, 73.949,52.188, 5.84,110.24
		c0.00,0.00-22.829,19.149-2.229,39.748c0.00,0.00, 17.614,18.796, 45.971-14.935C 406.133,301.033, 477.126,233.694, 411.811,152.665z" data-tags="sound" />
<glyph unicode="&#x25c9;" d="M 186.588,357.365L 95.90,470.096c0.00,0.00-25.40,26.404-59.801-9.969
			c0.00,0.00-139.533-134.66, 125.583-365.895c0.00,0.00, 173.421-197.349, 320.928-97.682c0.00,0.00, 61.793,43.864, 7.973,79.743
			c0.00,0.00-74.582,64.015-83.719,73.756c0.00,0.00-27.03,26.783-49.128,1.59c0.00,0.00-40.568-46.807-81.454-9.559l-92.701,89.698
			c-0.001,0.001-37.84,45.863, 4.021,83.739C 187.601,315.518, 212.00,330.50, 186.588,357.365z" data-tags="phone" />
<glyph unicode="&#x25c8;" d="M 383.468-32.00L 128.089-32.00 c-21.589,0.00-31.949,14.50-31.949,31.299L 96.14,446.622 
			C 96.14,470.50, 106.00,480.571, 127.089,480.571l 255.379,0.00 c 27.032,0.00, 34.346-10.071, 34.346-32.949l0.00-448.323 C 416.813-20.00, 406.00-32.00, 383.468-32.00z
			 M 255.751,0.19c 17.533,0.00, 31.741,14.219, 31.741,31.745c0.00,17.533-14.208,31.74-31.741,31.74s-31.741-14.207-31.741-31.74
			C 224.01,14.409, 238.218,0.19, 255.751,0.19z M 353.837,394.402c0.00,15.098-0.337,21.307-16.295,21.307L 181.333,415.709 
			c-17.333,0.00-21.296-4.209-21.296-21.307l0.00-277.869 c0.00-15.033, 3.963-21.296, 21.296-21.296l 156.208,0.00 c 15.458,0.00, 16.295,9.54, 16.295,21.296
			L 353.836,394.402 z" data-tags="iphone" />
<glyph unicode="&#x25c7;" d="M 414.468-32.00L 96.089-32.00 C 74.50-32.00, 64.14-17.50, 64.14-0.701L 64.14,446.622 
			C 64.14,470.50, 74.00,480.571, 95.089,480.571l 318.379,0.00 c 27.032,0.00, 34.346-10.071, 34.346-32.949l0.00-448.323 C 447.813-20.00, 437.00-32.00, 414.468-32.00z
			 M 256.186,30.101c 36.048,0.00, 65.263,29.233, 65.263,65.271c0.00,36.049-29.214,65.263-65.263,65.263s-65.262-29.214-65.262-65.263
			C 190.923,59.334, 220.137,30.101, 256.186,30.101z M 384.837,394.402c0.00,15.098-0.337,21.307-16.295,21.307L 149.333,415.709 
			c-17.333,0.00-21.296-4.209-21.296-21.307l0.00-180.869 c0.00-15.033, 3.963-21.296, 21.296-21.296l 219.208,0.00 c 15.458,0.00, 16.295,9.54, 16.295,21.296
			L 384.836,394.402 z M 256.819,127.543c 17.541,0.00, 31.769-14.215, 31.769-31.758c0.00-17.541-14.228-31.756-31.769-31.756
			c-17.542,0.00-31.757,14.215-31.757,31.756C 225.062,113.328, 239.277,127.543, 256.819,127.543z" data-tags="ipod" />
<glyph unicode="&#x25c6;" d="M 224.351,192.154L 224.351-32.00 L 512.856,480.00L 0.896,192.465L 224.351,192.154z" data-tags="location" />
<glyph unicode="&#x25c5;" d="M 96.305,224.168c0.00,31.229, 8.97,60.358, 24.46,84.971L 52.583,377.32
			C 20.589,334.584, 1.639,281.519, 1.639,224.028c0.00-57.841, 19.188-111.195, 51.535-154.061l 68.221,68.221
			C 105.513,163.01, 96.305,192.513, 96.305,224.168zM 256.056,383.918c 31.031,0.00, 59.989-8.857, 84.502-24.167l 69.80,69.80
			C 367.727,461.276, 314.892,480.056, 257.666,480.056c-56.197,0.00-108.154-18.121-150.379-48.817l 68.77-68.77
			C 199.583,376.106, 226.906,383.918, 256.056,383.918zM 464.438,375.008l-70.363-70.363c 13.811-23.634, 21.732-51.128, 21.732-80.477
			c0.00-29.777-8.156-57.645-22.342-81.509l 70.399-70.398c 31.312,42.472, 49.829,94.953, 49.829,151.767
			C 513.694,280.492, 495.401,332.676, 464.438,375.008zM 256.056,64.416c-28.721,0.00-55.668,7.585-78.958,20.853l-69.024-69.025
			C 150.157-14.106, 201.819-32.00, 257.666-32.00c 56.875,0.00, 109.411,18.557, 151.905,49.929l-70.022,70.024
			C 315.252,73.028, 286.661,64.416, 256.056,64.416z" data-tags="support" />
<glyph unicode="&#x25d0;" d="M 512.00,128.782L 446.793,192.468L 320.799,192.468L 320.799,255.841L 480.182,255.841L 480.182,384.208L 320.799,384.208L 320.799,481.00L 192.496,481.00L 192.496,384.208L 64.206,384.208L0.00,320.522L 64.497,255.841L 192.496,255.841L 192.496,192.468L 31.247,192.468L 31.247,64.292L 192.496,64.292L 192.496-32.00L 320.799-32.00L 320.799,64.292L 447.503,64.292 	z" data-tags="navigation" />
<glyph unicode="&#x25d1;" d="M 415.999,480.00c-41.638,0.00-77.051-26.622-90.165-63.771l-37.45,0.00 l-53.962,0.00 l-10.038,0.00 
		l0.00-102.831 c-26.616-9.486-47.791-30.43-57.585-56.898L 128.00,256.50 L 74.038,256.50 L 64.00,256.50 l0.00-102.831 C 26.993,140.479, 0.50,105.136, 0.50,63.60
		c0.00-52.798, 42.801-95.60, 95.599-95.60c 52.798,0.00, 95.60,42.802, 95.60,95.60c0.00,41.61-26.587,77.005-63.699,90.14L 128.00,192.00 l 38.142,0.00 
		c 12.971-37.409, 48.517-64.271, 90.34-64.271c 52.799,0.00, 95.60,42.802, 95.60,95.60c0.00,41.61-26.587,77.005-63.698,90.139l0.00,38.261 l 37.748,0.00 
		c 13.349-36.708, 48.545-62.928, 89.867-62.928c 52.799,0.00, 95.60,42.802, 95.60,95.60S 468.798,480.00, 415.999,480.00z M 95.599,31.831
		c-17.822,0.00-32.269,14.447-32.269,32.269s 14.447,32.269, 32.269,32.269c 17.822,0.00, 32.269-14.447, 32.269-32.269
		S 113.421,31.831, 95.599,31.831z M 255.982,191.561c-17.821,0.00-32.268,14.447-32.268,32.269s 14.446,32.269, 32.268,32.269
		c 17.822,0.00, 32.27-14.447, 32.27-32.269S 273.805,191.561, 255.982,191.561z M 415.499,354.633c-17.821,0.00-32.268,14.447-32.268,32.269
		s 14.446,32.269, 32.268,32.269c 17.822,0.00, 32.27-14.447, 32.27-32.269S 433.321,354.633, 415.499,354.633z" data-tags="sitemap" />
<glyph unicode="&#x25d2;" d="M 416.00,63.479L 416.00,96.03 l-82.653,0.00 l-13.103,0.00 L 320.244,240.18 
		c 38.641,22.121, 64.678,63.752, 64.678,111.467C 384.922,422.534, 327.456,480.00, 256.569,480.00c-70.888,0.00-128.354-57.466-128.354-128.353
		c0.00-45.241, 28.649-85.011, 64.375-107.869L 192.59-32.00 l 50.55,0.00 l 22.55,0.00 l 22.553,0.00 l 45.103,0.00 L 416.00-32.00 l0.00,32.099 l-32.103,0.00 l0.00,63.381 L 416.00,63.48 z M 256.895,383.424
		c 17.917,0.00, 32.443-14.525, 32.443-32.443c0.00-17.919-14.526-32.444-32.443-32.444c-17.918,0.00-32.443,14.525-32.443,32.444
		C 224.451,368.899, 238.976,383.424, 256.895,383.424z" data-tags="key" />
<glyph unicode="&#x25d3;" d="M 31.527,480.00l 63.726,0.00 l0.00-512.00 L 31.527-32.00 L 31.527,480.00 z M 512.00,189.146c0.00,0.00-103.341,61.802-47.187,153.999
			c0.00,0.00, 47.187,67.17, 47.187,105.67c-43.184-9.41-207.621-83.936-384.25,32.284l0.00-220.549 c0.00-55.194,0.00-35.329,0.00-35.329
			S 283.03,105.055, 512.00,189.146z" data-tags="flag" />
<glyph unicode="&#x25d4;" d="M 398.552,292.555c-5.032,0.00-9.986-0.334-14.842-0.977
			c-15.991,59.003-51.244,93.412-133.975,93.412c-63.769,0.00-117.487-34.004-133.753-92.591c-1.895,0.095-3.798,0.157-5.717,0.157
			c-61.918,0.00-112.112-46.194-112.112-108.111c0.00-61.919, 50.194-121.112, 112.112-121.112c 27.157,0.00, 52.058,18.657, 71.458,34.724
			c 9.38-16.319, 24.458-28.942, 42.518-35.155l-0.216,110.921l-17.542-17.149c-10.327-10.167-18.93-9.441-18.93-9.441
			c-26.818-0.115-28.702,25.189-28.702,25.189c-0.047,11.634, 6.255,16.977, 6.255,16.977l 67.239,87.784
			c 7.865,10.984, 22.757,11.145, 22.757,11.145c 15.397,1.175, 25.688-12.26, 25.688-12.26l 63.174-84.427
			c 7.735-7.994, 7.008-15.587, 7.008-15.587c 0.114-27.969-26.66-29.173-26.66-29.173c-12.793-0.054-18.352,7.189-18.352,7.189
			l-19.819,19.757l 0.217-109.372c 18.228,7.448, 33.027,10.551, 41.371,28.297c 20.163-19.451, 40.594-31.418, 70.822-31.418
			c 61.918,0.00, 112.112,61.193, 112.112,123.112C 510.664,246.361, 460.47,292.555, 398.552,292.555z" data-tags="upload" />
<glyph unicode="&#x25d5;" d="M 388.502,222.21c-7.466-11.648-122.075-191.428-132.178-248.988l0.00-2.949 
			c-0.054,0.424-0.262,1.033-0.326,1.47c-0.065-0.437-0.262-1.046-0.315-1.47l0.00,2.949 
			c-10.438,59.499-134.291,250.119-134.291,250.119c-2.264,4.441-4.168,8.719-6.128,13.02
			c-11.104,19.636-18.19,41.799-20.192,65.441c-6.335,44.912, 7.674,78.787, 28.345,104.116
			c 28.748,42.474, 77.219,74.64, 132.266,75.119l0.00,0.022 c0.00,0.00, 0.087,0.00, 0.143-0.022c 0.173,0.00, 0.325,0.022, 0.488,0.022l 0.011,0.00 l0.00,0.00
			c 0.262,0.01, 0.513,0.043, 0.773,0.043c 63.896,0.00, 118.952-41.429, 145.078-95.289c 7.608-13.998, 12.898-29.977, 14.595-48.297
			c 0.971-7.185, 1.655-14.467, 1.655-21.923C 418.426,280.75, 407.269,248.584, 388.502,222.21z M 256.10,385.427
			c-35.832,0.00-64.88-29.041-64.88-64.872s 29.049-64.881, 64.88-64.881c 35.831,0.00, 64.882,29.05, 64.882,64.881
			S 291.931,385.427, 256.10,385.427z" data-tags="pin" />
<glyph unicode="&#x25d7;" d="M 399.263,63.767c-30.144,0.00-57.495,24.934-77.602,44.329
			c-12.492-26.569-39.488-44.971-70.791-44.971c-29.019,0.00-54.327,15.819-67.821,39.292c-19.345-16.021-44.175-38.65-71.255-38.65
			C 50.052,63.767,0.00,113.818,0.00,175.56c0.00,61.742, 50.052,111.794, 111.793,111.794c 1.914,0.00, 3.812-0.062, 5.702-0.157
			C 134.453,348.283, 186.543,384.50, 250.868,384.50c 64.607,0.00, 116.924-36.616, 133.594-98.121c 4.843,0.641, 9.782,0.975, 14.801,0.975
			c 61.741,0.00, 111.793-50.052, 111.793-111.794C 511.056,113.818, 461.004,63.767, 399.263,63.767z M 399.263,239.459
			c-12.339,0.00-23.853-3.506-33.621-9.562c-19.792-4.967-24.385,12.207-24.385,12.207l-0.239-0.004
			c 0.23,2.634, 0.362,5.296, 0.362,7.989c0.00,49.988-40.523,91.511-90.512,91.511c-49.987,0.00-90.511-41.523-90.511-91.511
			c0.00-7.44, 0.904-14.669, 2.597-21.587c-8.271-0.778-18.24,2.121-23.735,4.043c-8.295,3.999-17.599,6.241-27.425,6.241
			c-34.919,0.00-63.227-28.308-63.227-63.227s 28.308-63.226, 63.227-63.226c 18.459,0.00, 35.067,7.914, 46.625,20.53
			C 192.00,175.50, 216.682,159.96, 219.218,146.458c-0.837-2.903-1.31-1.96-1.31-5.133c0.00-18.203, 14.757-32.961, 32.962-32.961
			c 18.204,0.00, 32.962,14.758, 32.962,32.961c0.00,0.853-0.044,1.694-0.107,2.53c 7.078,39.688, 47.974,2.934, 71.017-14.111
			c 3.265-3.172, 6.862-5.998, 10.743-8.42c 3.178-2.637, 5.037-4.322, 5.037-4.322c 0.351,0.323, 0.676,0.646, 1.02,0.969
			c 8.386-4.043, 17.788-6.311, 27.722-6.311c 35.291,0.00, 63.899,28.609, 63.899,63.899C 463.162,210.851, 434.554,239.459, 399.263,239.459z" data-tags="cloudstroke" />
<glyph unicode="&#x25d8;" d="M 448.205,169.542l 0.006-0.787l-0.014,0.00 
			c-2.705-143.281-92.145-136.804-92.145-136.804c-64.595,0.00-65.674,57.912-65.674,57.912c0.00,75.731, 93.449,77.414, 93.449,77.414
			l 0.589,0.045L 384.416,383.24 l-192.751-63.102l0.00-208.441 l 0.218,0.016c0.00-150.35-94.21-143.667-94.21-143.667
			C 33.079-31.955, 32.00,25.957, 32.00,25.957c0.00,62.212, 68.871,77.824, 95.965,81.417l-0.448,0.027L 127.517,384.423 L 448.025,480.00l 0.137-304.39
			l 0.101,0.008C 448.263,173.56, 448.239,171.542, 448.205,169.542z" data-tags="music" />
<glyph unicode="&#x25d9;" d="M 301.907,473.975L 110.519,209.979c0.00,0.00-14.542-14.912-14.542-32.16
			c0.00,0.00-2.705-17.921, 20.98-17.921l 135.895,0.00 c0.00,0.00, 7.099-0.354, 1.688-12.521l-31.80-111.952c0.00,0.00-10.479-29.794-10.479-46.027
			c0.00,0.00-1.358-21.321, 17.247-21.321c0.00,0.00, 5.753-2.704, 23.344,24.321l 182.241,251.709c0.00,0.00, 12.854,13.562, 12.854,29.475
			c0.00,0.00-2.705,14.873-28.764,14.873L 303.516,288.455 c0.00,0.00-17.60-3.036-14.212,5.08l 42.634,131.299c0.00,0.00, 8.115,23.354, 8.115,41.606
			c0.00,0.00-2.053,13.88-20.637,13.88C 319.416,480.319, 311.381,483.47, 301.907,473.975z" data-tags="alarm" />
<glyph unicode="&#x25e3;" d="M 0.664,0.50L 0.664,250.599 c0.00,18.928, 7.836,37.789, 34.788,37.789l 92.465,0.00 L 127.917,447.02 l 189.554,0.00 
			l 0.542-0.577l-0.068,1.743l 65.836-64.542l-0.069-0.011l 0.069-0.068l0.00-95.177 l 93.873,0.00 c 26.95,0.00, 34.799-18.861, 34.799-37.789L 512.453,0.50 
			L 0.664,0.50 z M 416.472,192.373L 95.821,192.373 l0.00-96.092 l 320.651,0.00 L 416.472,192.373 z" data-tags="print" />
<glyph unicode="&#x25e2;" d="M 512.063,159.988L 383.624,159.988 l0.00-76.188 c0.00-10.804-8.758-19.561-19.561-19.561L 218.541,64.239 
			c-0.209-10.624, 0.875-32.461-19.541-32.461l-19.939,0.00 c-19.789,0.00-19.561,22.044-19.561,32.849l0.00,63.383 
			c-0.218-0.004-0.434-0.015-0.653-0.015L 37.28,127.995 c-20.527,0.00-37.167,9.638-37.167,30.164c0.00,20.527, 16.64,34.167, 37.167,34.167l 121.566,0.00 
			c 0.22,0.00, 0.436-0.013, 0.653-0.018l0.00,95.747 c-0.218-0.003-0.434-0.017-0.653-0.017L 37.28,288.038 c-20.527,0.00-37.167,11.641-37.167,32.167
			c0.00,20.526, 16.64,31.165, 37.167,31.165l 121.566,0.00 c 0.22,0.00, 0.436-0.013, 0.653-0.016L 159.499,415.89 c0.00,10.804-0.229,31.704, 19.561,31.704L 199.00,447.594 
			c 22.892,0.00, 19.332-20.694, 19.541-31.317l 145.523,0.00 c 10.803,0.00, 19.561-8.757, 19.561-19.561l0.00-76.221 l 128.439,0.00 L 512.064,159.988 z" data-tags="plug" />
<glyph unicode="&#x25e0;" d="M 483.946,316.496l-92.335-92.92l 92.558-92.555
			c 37.402-37.404, 37.402-98.061,0.00-135.454c-37.405-37.401-98.049-37.401-135.451,0.00l-92.569,92.557l-92.556-92.557
			c-37.404-37.401-98.047-37.401-135.452,0.00c-37.404,37.394-37.404,98.05,0.00,135.454l 92.556,92.555l-92.644,96.006
			c-37.404,37.416-37.404,94.961,0.00,132.365c 37.403,37.404, 98.047,37.404, 135.451,0.00l 92.645-92.907l 92.347,92.907
			c 37.404,37.404, 98.048,37.404, 135.451,0.00C 521.351,414.543, 521.351,353.912, 483.946,316.496z" data-tags="reject" />
<glyph unicode="&#x25df;" d="M 210.076,170.534L 372.381,433.146c 35.355,49.851, 73.135,46.552, 73.135,46.552
			c 63.494,0.00, 66.484-69.82, 66.484-69.82c0.00-32.731-26.594-63.168-26.594-63.168C 370.179,182.765, 259.942-0.998, 259.942-0.998
			c-26.576-38.221-53.786-34.192-73.057-22.604c-6.52,2.551-9.544,4.931-15.758,12.288c-6.881,6.653-10.913,12.369-10.913,12.369
			l-47.228,56.272c-19.459,21.767-45.338,51.812-80.241,88.141c0.00,0.00-29.302,28.967-31.737,62.243c0.00,0.00-2.155,71.206, 62.399,75.93
			c0.00,0.00, 20.339,3.279, 46.749-13.641" data-tags="tick" />
<glyph unicode="&#x25de;" d="M 480.008-34.00L 63.745-34.00 c-17.668,0.00-31.992,14.323-31.992,31.992L 31.753,256.253 
			c0.00,17.668, 14.324,31.992, 31.992,31.992l 0.523,0.00 C 64.268,384.00, 128.00,480.00, 274.826,480.00C 415.50,480.00, 480.883,384.00, 480.883,288.245l-0.875,0.00 
			c 17.669,0.00, 31.992-14.323, 31.992-31.992l0.00-258.261 C 512.00-19.677, 497.677-34.00, 480.008-34.00z M 256.329,127.757l-0.702-63.979
			l 31.923-0.278l 0.216,64.249c 16.771,7.587, 32.448,15.585, 32.448,48.059c0.00,26.701-21.646,48.346-48.346,48.346
			c-26.70,0.00-48.346-21.645-48.346-48.346C 223.522,147.499, 238.302,134.78, 256.329,127.757z M 275.877,416.00
			c-93.377,0.00-147.635-62.50-147.635-127.755l 288.667,0.00 C 416.909,351.50, 369.551,416.00, 275.877,416.00z" data-tags="lock" />
<glyph unicode="&#x25dd;" d="M 271.062,255.995c-62.306,0.00-112.823,50.517-112.823,112.835
			c0.00,62.318, 50.517,112.834, 112.823,112.834c 62.317,0.00, 112.847-50.516, 112.847-112.834
			C 383.908,306.511, 333.379,255.995, 271.062,255.995z M 272.483,226.028c 181.81,0.00, 175.698-257.064, 175.698-257.064L 95.124-31.036 
			C 95.124,241.683, 272.483,226.028, 272.483,226.028z" data-tags="user" />
<glyph unicode="&#x25dc;" d="M 458.781-32.00L 60.04-32.00 C 31.256-32.00,0.00-8.674,0.00,20.098L0.00,363.724 
			c0.00,28.783, 25.256,52.109, 54.04,52.109l 8.516,0.00 l0.00-1.823 C 62.555,433.327, 78.217,449.00, 97.534,449.00c 19.329,0.00, 34.99-15.673, 34.99-34.99l0.00,1.823 
			l 247.73,0.00 l0.00-1.823 c0.00,19.317, 15.673,34.99, 34.989,34.99c 19.329,0.00, 34.99-15.673, 34.99-34.99l0.00,1.823 l 8.548,0.00 
			c 28.772,0.00, 54.386-23.327, 54.386-52.109l0.00-343.626 C 513.167-8.674, 487.554-32.00, 458.781-32.00z M 110.765,411.68
			c0.00,6.859-5.577,12.437-12.447,12.437c-6.87,0.00-12.448-5.578-12.448-12.437l0.00-8.327 c0.00-6.87, 5.578-12.437, 12.448-12.437
			c 6.87,0.00, 12.447,5.567, 12.447,12.437L 110.765,411.68 z M 95.893,319.52l0.00-256.503 l 319.649,0.00 L 415.542,319.52 L 95.893,319.52 z M 428.464,411.68
			c0.00,6.859-5.567,12.437-12.437,12.437S 403.58,418.539, 403.58,411.68l0.00-8.327 c0.00-6.87, 5.578-12.437, 12.447-12.437
			s 12.437,5.567, 12.437,12.437L 428.464,411.68 zM 128.00,288.00L 192.00,288.00L 192.00,256.00L 128.00,256.00zM 224.00,288.00L 288.00,288.00L 288.00,256.00L 224.00,256.00zM 320.00,288.00L 384.00,288.00L 384.00,256.00L 320.00,256.00zM 128.00,225.00L 192.00,225.00L 192.00,193.00L 128.00,193.00zM 224.00,225.00L 288.00,225.00L 288.00,193.00L 224.00,193.00zM 320.00,225.00L 384.00,225.00L 384.00,193.00L 320.00,193.00zM 128.00,161.00L 192.00,161.00L 192.00,129.00L 128.00,129.00zM 224.00,161.00L 288.00,161.00L 288.00,129.00L 224.00,129.00zM 320.00,161.00L 384.00,161.00L 384.00,129.00L 320.00,129.00z" data-tags="calendar" />
<glyph unicode="&#x25db;" d="M 481.769,257.394c0.00,0.00-34.105-53.449-60.355-26.64
			c0.00,0.00-15.073,15.084, 1.948,32.106c0.00,0.00, 92.473,75.306, 12.801,165.902c0.00,0.00-36.662,27.404-11.813,47.19
			c0.00,0.00, 21.818,23.547, 67.754-51.099C 492.103,424.854, 540.41,345.076, 481.769,257.394z M 411.811,280.665
			c0.00,0.00-31.166-40.296-53.553-17.907c0.00,0.00-14.241,13.911-1.707,31.221c0.00,0.00, 73.949,52.188, 5.84,110.24c0.00,0.00-22.829,19.149-2.229,39.748
			c0.00,0.00, 17.614,18.796, 45.971-14.935C 406.133,429.033, 477.126,361.694, 411.811,280.665z M 256.82,253.978
			c-52.785,0.00-95.583,42.798-95.583,95.594s 42.798,95.593, 95.583,95.593c 52.796,0.00, 95.604-42.797, 95.604-95.593
			S 309.616,253.978, 256.82,253.978z M 257.619,223.683c 157.519,0.00, 158.289-222.719, 158.289-222.719L 96.159,0.964 
			C 96.159,237.246, 257.619,223.683, 257.619,223.683zM 29.09,445.313c0.00,0.00, 34.105,53.449, 60.355,26.64c0.00,0.00, 15.073-15.084-1.948-32.106
		c0.00,0.00-92.473-75.306-12.801-165.902c0.00,0.00, 36.662-27.404, 11.813-47.19c0.00,0.00-21.818-23.547-67.754,51.099
		C 18.756,277.853-29.551,357.631, 29.09,445.313zM 99.048,422.042c0.00,0.00, 31.166,40.296, 53.553,17.907c0.00,0.00, 14.241-13.911, 1.707-31.221
		c0.00,0.00-73.949-52.188-5.84-110.24c0.00,0.00, 22.829-19.149, 2.229-39.748c0.00,0.00-17.614-18.796-45.971,14.935
		C 104.726,273.674, 33.733,341.013, 99.048,422.042z" data-tags="shout" />
<glyph unicode="&#x25da;" d="M 103.383-4.425l-75.308,75.308c-35.855,35.854-35.855,93.986,0.00,129.841
			l 86.323,86.324l 74.87,0.00 l-86.945-86.946c-32.315-32.313-41.315-80.706-9.00-113.021l 21.063-21.063
			c 32.314-32.314, 84.707-32.314, 117.021,0.00l 88.893,88.894l0.00-72.257 l-87.077-87.078C 197.369-40.278, 139.237-40.278, 103.383-4.425z
			 M 372.043,339.979c 16.327-16.322, 16.327-42.781,0.00-59.108L 198.772,107.601c-16.322-16.332-42.789-16.332-59.11,0.00
			c-16.327,16.323-16.327,42.782,0.00,59.11l 173.271,173.269C 329.256,356.308, 355.722,356.308, 372.043,339.979z M 405.999,240.608
			c 32.314,32.315, 37.314,79.707, 5.00,112.021l-26.063,26.063c-41.621,41.622-84.707,17.314-117.021-15.00l-75.68-75.679l0.00,76.869 
			l 87.042,87.041c 35.854,35.854, 93.986,35.854, 129.841,0.00l 75.307-75.308c 35.854-35.854, 35.854-93.986,0.00-129.84l-87.795-87.795
			l-72.256,0.00 L 405.999,240.608z" data-tags="attach" />
<glyph unicode="&#x25e4;" d="M 191.849,210.318c0.00-10.326, 8.364-18.69, 18.691-18.69l 58.979,0.00 
			c 10.325,0.00, 18.69,8.364, 18.69,18.69L 288.209,460.94 c0.00,10.313-8.365,18.666-18.69,18.666L 210.54,479.606 c-10.327,0.00-18.691-8.353-18.691-18.666
			L 191.849,210.318 zM 320.50,367.844l0.00-109.186 c 21.519-20.96, 31.889-50.246, 31.889-82.658
		c0.00-63.727-48.662-115.389-112.389-115.389c-63.727,0.00-115.389,51.662-115.389,115.389c0.00,32.664, 13.576,62.154, 35.389,83.146L 160.00,368.048 
		C 84.836,336.701, 32.00,262.525, 32.00,176.00c0.00-114.875, 93.125-208.00, 208.00-208.00c 114.875,0.00, 208.00,93.125, 208.00,208.00
		C 448.00,262.333, 395.399,336.377, 320.50,367.844z" data-tags="shutdown" />
<glyph unicode="&#x25e5;" d="M 255.978-32.236c-141.188,0.00-255.654,114.461-255.654,255.654
			C 0.324,364.624, 114.79,480.072, 255.978,480.072s 255.643-115.449, 255.643-256.654C 511.621,82.225, 397.166-32.236, 255.978-32.236z
			 M 349.552,288.165L 163.00,288.165 c-37.09,0.00-67.161-24.073-67.161-61.157c0.00-37.096, 30.071-67.165, 67.161-67.165l 186.552,0.00 
			c 37.097,0.00, 67.167,30.069, 67.167,67.165C 416.719,264.092, 386.648,288.165, 349.552,288.165z" data-tags="forbidden" />
<glyph unicode="&#x25e6;" d="M 499.792,47.585c 15.851-15.851, 15.851-41.549,0.00-57.399l-10.333-10.333
		c-15.85-15.851-41.549-15.851-57.399,0.00L 318.905,93.008c-29.672-29.628-50.688-47.567-50.688-47.567s 0.041,0.324, 0.123,0.932
		c-0.137-0.139-0.229-0.233-0.229-0.233l-0.025-0.278l-0.569-0.60l-38.208,37.01L 127.843-19.196
		c-18.029-18.029-47.261-18.029-65.29,0.00l-11.752,11.753c-18.03,18.027-18.03,47.26,0.00,65.288l 122.249,122.25
		c-40.497,4.879-73.578,44.803-73.578,44.803L 6.657,319.023c-14.159,14.159, 2.266,30.583, 2.266,30.583
		c 18.61,18.611, 31.525,3.846, 31.525,3.846l 83.95-85.924c 15.083-17.051, 28.854-1.967, 28.854-1.967
		c 15.744,15.745-1.033,28.477-1.033,28.477l-85.295,84.748c-15.726,15.727, 2.131,31.429, 2.131,31.429
		c 0.492,0.492, 0.976,0.958, 1.452,1.41c 0.452,0.478, 0.918,0.96, 1.411,1.452c0.00,0.00, 15.701,17.857, 31.427,2.131l 84.749-85.294
		c0.00,0.00, 12.73-16.778, 28.476-1.034c0.00,0.00, 15.084,13.771-1.968,28.854l-85.923,83.951c0.00,0.00-14.764,12.913, 3.846,31.523
		c0.00,0.00, 16.425,16.425, 30.583,2.266l 94.127-92.815c0.00,0.00, 38.587-35.07, 46.327-72.054l 3.827,3.828c 0.938,0.938, 1.908,1.824, 2.903,2.665
		L 451.745,461.362c0.00,0.00, 36.895,36.051, 50.919,11.452c 0.132,0.172, 0.205,0.271, 0.205,0.271c 0.211-0.602, 0.402-1.208, 0.605-1.812
		c 1.546-3.192, 2.759-7.242, 3.536-12.334c 22.882-95.644-51.43-210.978-123.06-295.513L 499.792,47.585z" data-tags="food" />
<glyph unicode="&#x25e7;" d="M 256.02,31.541c-26.50,0.00-52.06,3.243-76.101,9.264
			C 112.50-12.94, 50.697,0.521, 50.697,0.521c 32.537,16.174, 43.254,54.163, 46.656,75.398C 38.055,113.689,0.00,176.148,0.00,241.771
			C0.00,355.667, 114.624,448.00, 256.02,448.00c 141.397,0.00, 256.021-92.333, 256.021-206.229C 512.041,127.873, 397.417,31.541, 256.02,31.541z" data-tags="balloon" />
<glyph unicode="&#x25e8;" d="M 511.257,308.163c0.00-20.209-21.306-45.941-21.306-45.941l-286.21-280.76
			c-29.396-29.406-57.874-0.919-57.874-0.919L 14.017,112.381c-32.15,32.164-1.074,60.485-1.074,60.485L 306.859,468.794
			c 14.701,14.697, 40.732,10.713, 40.732,10.713L 496.03,479.32c 12.395,1.372, 15.316-13.436, 15.316-13.436L 511.257,308.163z
			 M 384.032,416.84c-35.769,0.00-64.764-28.995-64.764-64.764c0.00-35.786, 28.995-64.769, 64.764-64.769c 35.771,0.00, 64.77,28.982, 64.77,64.769
			C 448.802,387.845, 419.803,416.84, 384.032,416.84z" data-tags="tag" />
<glyph unicode="&#x25e9;" d="M 447.564,63.672L 447.564,320.167 l0.00,0.00l0.00-0.042 l 32.826,0.00 L 256.37,481.00L 32.263,320.124l 31.247,0.00 
		l0.00-256.452 l 0.175,0.00 l-32.138-31.616l0.00,0.00l-31.949-31.72L 512.50,0.336 l-32.199,31.878l-0.044,0.055l-32.748,31.403 M 384.00,64.672l-32.00,0.00 L 352.00,320.124 l 32.00,0.00 
		L 384.00,64.672 z M 256.037,416.182c 17.726,0.00, 32.092-14.362, 32.092-32.091c0.00-17.727-14.366-32.091-32.092-32.091
		c-17.727,0.00-32.093,14.364-32.093,32.091C 223.944,401.819, 238.311,416.182, 256.037,416.182z M 224.00,320.124l 64.00,0.00 l0.00-255.452 l-64.00,0.00 L 224.00,320.124 z
		 M 128.00,320.124l 32.00,0.00 l0.00-255.452 l-32.00,0.00 L 128.00,320.124 z" data-tags="headquarters" />
<glyph unicode="&#x25fc;" d="M 223.52,309.836c0.00-19.298, 19.055-31.125, 65.771-45.463
			c 31.726-10.28, 51.873-22.784, 68.541-39.723l 0.344,0.00 c 17.809-17.541, 26.029-40.458, 26.029-74.602
			c0.00-53.206-22.431-105.889-97.182-118.959l0.00-62.434 l-94.431,0.00 l0.00,61.718 c-45.242,0.00-83.689,10.316-96.724,35.906l-0.061,92.579
			c 0.023-14.416, 60.708-48.057, 112.774-48.057c 31.764,0.00, 47.739,8.714, 47.739,28.662c0.00,19.298-5.055,31.124-51.771,45.462
			c-31.725,10.281-65.873,22.785-82.542,39.724l-0.343,0.00 c-17.809,17.54-26.029,40.458-26.029,74.601
			c0.00,53.206, 22.071,103.889, 96.823,116.959L 192.458,480.644 l 94.431,0.00 l0.00-61.718 c 45.242,0.00, 76.433-9.163, 96.646-36.907l 0.06-93.579
			c-22.996,19.441-31.194,50.057-105.518,50.057C 246.315,338.498, 223.52,329.784, 223.52,309.836z" data-tags="dollar" />
<glyph unicode="&#x25fb;" d="M 425.095-32.094L 87.414-32.094 c-47.996,0.00-86.905,38.909-86.905,86.905L 0.509,393.102 
			C 0.509,441.085, 39.418,480.00, 87.414,480.00l 337.681,0.00 C 473.091,480.00, 512.00,441.085, 512.00,393.102l0.00-338.29 C 512.00,6.815, 473.091-32.094, 425.095-32.094z
			 M 256.185,352.882c-70.981,0.00-128.53-57.548-128.53-128.53c0.00-70.995, 57.549-128.544, 128.53-128.544
			c 70.995,0.00, 128.544,57.549, 128.544,128.544C 384.729,295.333, 327.18,352.882, 256.185,352.882z M 431.941,449.067
			c-27.109,0.00-49.096-21.979-49.096-49.088c0.00-27.135, 21.986-49.115, 49.096-49.115c 27.12,0.00, 49.107,21.979, 49.107,49.115
			C 481.049,427.087, 459.062,449.067, 431.941,449.067z" data-tags="camera" />
<glyph unicode="&#x25fa;" d="M 363.157,480.00l 8.973,0.00 c 17.37,0.00, 24.431-9.76, 24.431-9.76l 72.705-71.105
		c 6.792-8.935, 9.364-16.531, 10.266-22.071l0.00-9.398 c0.00-0.031-0.048-0.16-0.048-0.16l 0.048-0.566l0.00-346.47 
		c0.00-29.532-28.623-53.469-58.149-53.469L 117.931-32.999 c-29.54,0.00-53.47,23.937-53.47,53.469L 64.461,426.543 C 64.46,456.058, 88.391,480.00, 117.931,480.00
		l 237.741,0.00 L 363.157,480.00 z M 384.00,383.651L 160.00,383.651 l0.00-63.544 l 224.00,0.00 L 384.00,383.651 z M 384.00,255.878L 160.00,255.878 l0.00-63.544 l 224.00,0.00 L 384.00,255.878 z M 384.00,127.878L 160.00,127.878 l0.00-63.544 l 224.00,0.00 L 384.00,127.878 z
		" data-tags="document" />
<glyph unicode="&#x25eb;" d="M 19.517,127.158l 86.913,86.912L 118.20,202.30l-86.913-86.914L 19.517,127.158zM 150.499,214.07l 91.036-91.035l-11.771-11.772l-91.036,91.035L 150.499,214.07zM 239.906,155.89l 68.324,120.034L 320.00,264.153l-68.323-120.035L 239.906,155.89zM 334.664,296.323L 416.00,296.323 l0.00-16.646 l-81.336,0.00 L 334.664,296.323 zM 400.13,281.811l 69.754,125.022l 11.772-11.771l-69.755-125.023L 400.13,281.811zM 32.328,160.656c 17.854,0.00, 32.329-14.472, 32.329-32.328
		c0.00-17.854-14.475-32.328-32.329-32.328C 14.474,96.00,0.00,110.474,0.00,128.328C0.00,146.185, 14.474,160.656, 32.328,160.656zM 128.00,256.328c 17.854,0.00, 32.329-14.472, 32.329-32.328
		c0.00-17.854-14.475-32.328-32.329-32.328c-17.854,0.00-32.328,14.474-32.328,32.328C 95.671,241.856, 110.146,256.328, 128.00,256.328zM 319.672,320.328C 337.525,320.328, 352.00,305.856, 352.00,288.00
		c0.00-17.854-14.475-32.328-32.328-32.328S 287.344,270.146, 287.344,288.00C 287.344,305.856, 301.818,320.328, 319.672,320.328zM 416.00,320.328c 17.854,0.00, 32.328-14.472, 32.328-32.328
		c0.00-17.854-14.475-32.328-32.328-32.328S 383.672,270.146, 383.672,288.00C 383.672,305.856, 398.146,320.328, 416.00,320.328zM 480.656,448.328c 17.854,0.00, 32.328-14.472, 32.328-32.328
		c0.00-17.854-14.475-32.328-32.328-32.328S 448.328,398.146, 448.328,416.00C 448.328,433.856, 462.803,448.328, 480.656,448.328zM 224.328,160.656c 17.854,0.00, 32.328-14.472, 32.328-32.328
		c0.00-17.854-14.474-32.328-32.328-32.328C 206.475,96.00, 192.00,110.474, 192.00,128.328C 192.00,146.185, 206.475,160.656, 224.328,160.656z" data-tags="stat" />
<glyph unicode="&#x25ef;" d="M 468.013-32.00l-424.026,0.012C 15.00-31.988,0.00-18.50,0.00,10.999L0.00,307.982 
		C0.00,342.00, 11.50,351.969, 43.986,351.969l 115.597,0.00 L 159.583,453.665 c0.00,13.904, 12.895,26.792, 24.804,26.792l 136.195,0.00 
		c 19.911,0.00, 31.894-12.888, 31.894-28.78l0.00-99.708 l 117.537,0.00 c 30.32,0.00, 41.987-13.969, 41.987-41.987l0.00-297.983 C 512.00-21.00, 499.50-32.00, 468.013-32.00z
		 M 319.306,447.97L 192.229,447.97 l0.00-96.00 l 127.064,0.00 L 319.306,447.97z" data-tags="suitcase" />
<glyph unicode="&#x25f0;" d="M 461.313,245.939l 51.909-17.723l-9.20-77.239l-56.509-3.21
		c-6.663-16.389-15.517-31.626-26.012-45.548l 26.858-54.731l-61.11-48.115l-44.623,39.818c-20.475-9.212-42.743-15.114-66.15-17.067
		L 259.282-32.00l-76.984,11.106l-3.87,59.535c-17.044,7.537-32.918,17.236-47.135,28.933l-48.944-24.668l-46.58,62.285l 36.673,41.98
		c-7.636,18.614-12.734,38.551-14.518,59.452L0.00,225.737l 11.112,76.984l 63.729,4.293c 6.755,14.953, 15.248,28.962, 25.236,41.731
		l-27.16,53.926l 62.28,46.58l 44.645-39.014c 18.099,7.774, 37.496,13.128, 57.866,15.329L 255.088,479.00l 77.227-9.194l 3.142-57.744
		c 16.871-6.801, 32.547-15.891, 46.823-26.736l 53.543,26.279l 48.109-61.11l-39.13-43.857
		C 453.262,287.751, 458.973,267.363, 461.313,245.939z M 256.594,321.675c-53.895,0.00-97.593-43.699-97.593-97.601
		c0.00-53.906, 43.698-97.606, 97.593-97.606c 53.917,0.00, 97.605,43.70, 97.605,97.606C 354.199,277.976, 310.511,321.675, 256.594,321.675z" data-tags="settings" />
<glyph unicode="&#x25f1;" d="M 256.60,319.986l0.00-46.584 c0.00,0.00, 14.232-34.61, 48.843-8.447l 104.20,83.179
		c0.00,0.00, 22.791,26.175-10.14,47.281L 303.167,470.167c0.00,0.00-35.334,29.333-47.379-11.28l0.00-43.829 c0.00,0.00-223.497,5.442-223.497-228.158
		c0.00,0.00-1.463-218.899, 237.45-218.899c0.00,0.00, 210.26,0.00, 210.26,205.022c0.00,0.00, 2.49,18.67-24.53,18.67l-46.646,0.00 
		c0.00,0.00-17.989,3.474-24.559-17.717c0.00,0.00, 18.235-110.212-123.815-110.212c0.00,0.00-132.944-1.264-132.944,128.188
		C 127.505,191.952, 122.50,319.986, 256.60,319.986z" data-tags="refresh" />
<glyph unicode="&#x25f2;" d="M 494.814-20.452c-20.441-17.365-51.182-14.868-68.536,5.62L 313.033,108.065
		c-11.146,13.11-14.10,30.364-9.43,45.679c-32.011-20.008-69.486-29.168-107.862-26.015c-47.138,3.856-89.905,25.814-120.424,61.795
		c-30.54,35.958-45.253,81.701-41.408,128.805c 3.857,47.149, 25.792,89.944, 61.806,120.497C 170.06,501.902, 281.891,492.74, 344.999,418.40
		c 57.271-67.524, 54.987-165.922-1.537-230.683c 15.896,2.164, 32.515-3.532, 43.705-16.707l 113.299-122.924
		C 517.821,27.579, 515.312-3.084, 494.814-20.452z M 320.235,294.936c 2.424,29.438-6.759,58.013-25.846,80.486
		c-39.402,46.476-109.293,52.215-155.776,12.807c-46.455-39.465-52.182-109.336-12.755-155.755
		c 39.401-46.468, 109.279-52.222, 155.774-12.793C 304.112,238.755, 317.835,265.492, 320.235,294.936z" data-tags="search" />
<glyph unicode="&#x25f3;" d="M 255.401-32.00C 255.401-32.00, 32.00-19.153, 32.00,384.409c0.00,0.00, 146.50-15.909, 225.947,97.66
		c0.00,0.00, 63.116-110.271, 221.652-98.252C 479.60,383.817, 512.00-32.00, 255.401-32.00z" data-tags="guard" />
<glyph unicode="&#x25f4;" d="M 499.792,47.585c 15.851-15.851, 15.851-41.549,0.00-57.399l-10.333-10.333
		c-15.85-15.851-41.549-15.851-57.399,0.00L 318.905,93.008c-29.672-29.628-50.688-47.567-50.688-47.567s 0.041,0.324, 0.123,0.932
		c-0.137-0.139-0.229-0.233-0.229-0.233l-0.025-0.278l-0.569-0.60l-38.208,37.01L 127.843-19.196
		c-18.029-18.029-47.261-18.029-65.29,0.00l-11.752,11.753c-18.03,18.027-18.03,47.26,0.00,65.288l 122.249,122.25
		c-40.497,4.879-73.578,44.803-73.578,44.803L 6.657,319.023c-14.159,14.159, 2.266,30.583, 2.266,30.583
		c 18.61,18.611, 31.525,3.846, 31.525,3.846l 83.95-85.924c 15.083-17.051, 28.854-1.967, 28.854-1.967
		c 15.744,15.745-1.033,28.477-1.033,28.477l-85.295,84.748c-15.726,15.727, 2.131,31.429, 2.131,31.429
		c 0.492,0.492, 0.976,0.958, 1.452,1.41c 0.452,0.478, 0.918,0.96, 1.411,1.452c0.00,0.00, 15.701,17.857, 31.427,2.131l 84.749-85.294
		c0.00,0.00, 12.73-16.778, 28.476-1.034c0.00,0.00, 15.084,13.771-1.968,28.854l-85.923,83.951c0.00,0.00-14.764,12.913, 3.846,31.523
		c0.00,0.00, 16.425,16.425, 30.583,2.266l 94.127-92.815c0.00,0.00, 38.587-35.07, 46.327-72.054l 3.827,3.828c 0.938,0.938, 1.908,1.824, 2.903,2.665
		L 451.745,461.362c0.00,0.00, 36.895,36.051, 50.919,11.452c 0.132,0.172, 0.205,0.271, 0.205,0.271c 0.211-0.602, 0.402-1.208, 0.605-1.812
		c 1.546-3.192, 2.759-7.242, 3.536-12.334c 22.882-95.644-51.43-210.978-123.06-295.513L 499.792,47.585z" data-tags="food" />
<glyph unicode="&#x25f5;" d="M 159.372-23.145c0.00,8.355, 8.318,9.356, 8.318,9.356
		c 14.82,0.00, 18.465,15.208, 18.465,15.208c 3.775,10.24, 4.907,53.008, 5.287,62.762L 20.151,64.181 c-11.229,0.00-20.331,9.113-20.331,20.341L-0.18,427.752 
		c0.00,11.234, 9.102,20.331, 20.331,20.331l 471.191,0.00 c 11.229,0.00, 20.331-9.097, 20.331-20.331l0.00-343.23 c0.00-11.228-9.103-20.341-20.331-20.341
		L 319.456,64.181 c 0.662-54.875, 8.234-63.036, 8.234-63.036c 10.734-13.971, 16.586-15.115, 16.586-15.115c 8.895-1.906, 7.747-10.24, 7.747-10.24
		c0.00-5.046-5.163-7.571-6.769-7.79c-2.005,0.062-4.374,0.00-4.374,0.00L 172.688-32.00 C 158.395-32.00, 159.372-23.145, 159.372-23.145
		 M 479.715,416.167L 31.778,416.167 l0.00-255.36 l 447.937,0.00 L 479.715,416.167 z" data-tags="monitor" />
<glyph unicode="&#x25f6;" d="M 406.442,32.141c-1.82,0.00-3.628,0.045-5.426,0.133
		c-2.708-0.171-5.478-0.273-8.331-0.273L 109.57,32.001 c0.00,0.00-0.328,0.06-0.917,0.176c-0.937-0.022-1.876-0.035-2.819-0.035
		C 47.383,32.141,0.00,78.562,0.00,135.828c0.00,43.205, 26.977,80.234, 65.324,95.815c 7.061,3.376, 14.979,5.762, 23.869,6.753
		c0.00,0.00-0.174,1.125-0.373,3.159c-3.071,9.911-4.729,20.424-4.729,31.318c0.00,59.449, 40.409,111.644, 109.872,111.644
		c 42.439,0.00, 79.248-27.583, 97.546-62.096c 4.462,0.567, 9.009,0.863, 13.627,0.863c 51.304,0.00, 93.993-36.11, 103.049-83.801
		c 22.356-0.354, 43.028-7.484, 59.96-19.407c 7.989-5.154, 15.451-11.708, 21.411-20.05c 14.228-17.658, 22.72-39.955, 22.72-64.197
		C 512.275,78.562, 464.894,32.141, 406.442,32.141z" data-tags="cloud" />
<glyph unicode="&#x25fd;" d="M 6.942,258.753C 6.942,380.126, 102.627,478.566, 224.00,478.632l0.00-221.50 L 50.064,127.983
		C 22.982,164.538, 6.942,209.762, 6.942,258.753zM 284.063,0.106c-74.157,0.00-146.063,35.394-180.63,95.612L 286.76,225.162L 286.76,448.00 
		c 0.021,0.00, 0.031,0.00, 0.042,0.00C 410.476,448.00, 508.00,347.737, 508.00,224.054C 508.00,100.379, 407.749,0.106, 284.063,0.106z" data-tags="piechart" />
<glyph unicode="&#x25fe;" d="M 159.083-32.374c0.00,0.00, 0.294,3.904-0.145,16.538
		C 158.114,7.812, 177.167,50.833, 34.50,189.50c0.00,0.00-68.667,66.50-2.50,98.50c0.00,0.00, 32.00,14.167, 63.833-52.50c0.00,0.00, 41.667-62.00, 46.667,18.667
		c0.00,0.00, 4.651,42.849-24.041,83.234c0.00,0.00-32.219,47.239-15.922,87.954c0.00,0.00, 24.781,42.481, 53.108,9.912c0.00,0.00, 20.446-30.851, 30.445-65.549
		c0.00,0.00, 11.181-63.96, 37.404-81.717c0.00,0.00-0.244,148.641, 0.704,169.00c0.00,0.00, 3.639,22.766, 31.325,22.766c0.00,0.00, 34.623,7.443, 32.502-61.623
		l 0.127-129.977c0.00,0.00, 31.376-9.333, 31.376,32.707l 0.257,90.151c0.00,0.00-2.617,36.991, 30.631,36.991c0.00,0.00, 35.87,8.818, 35.87-64.376
		l-0.452-88.11c0.00,0.00, 40.651-43.14, 49.157,9.987c0.00,0.00-7.49,64.984, 45.01,65.158c0.00,0.00, 44.24,0.717, 27.239-69.412
		c0.00,0.00-30.71-111.561-92.349-187.032c0.00,0.00-66.056-75.405-62.859-125.354l-0.32-21.25L 159.083-32.373 z" data-tags="hand" />
<glyph unicode="&#x2190;" d="M 94.43,123.779c0.00-86.587, 75.813-156.766, 162.382-156.766
		c 86.582,0.00, 162.395,70.179, 162.395,156.766c0.00,0.00, 4.539,49.832-45.208,133.304c0.00,0.00-109.946,182.161-117.969,223.091
		c0.00,0.00, 2.405-17.657-84.267-162.11C 171.763,318.065, 94.43,203.222, 94.43,123.779z" data-tags="drop" />
<glyph unicode="&#x2191;" d="M 407.387,271.979l-55.72,16.688l 0.06-31.629l-62.208-66.12L 224.50,128.00L 192.00,128.00 
		l 16.458-54.949c 13.265-55.418-35.393-88.594-35.393-88.594c-17.747-16.713-52.674-17.541-52.674-17.541
		c-10.267-0.373-15.901,1.781-18.794,4.959l-6.345,13.344l 16.886,15.383l 4.134,3.857c 36.573,30.723, 16.375,51.564, 16.375,51.564
		l-20.923,20.885l-0.001,0.00 l-0.625,0.627l-0.626,0.623l 0.001,0.002l-20.887,20.924c0.00,0.00-20.842,20.197-51.564-16.375l-3.856-4.135
		l-13.384-14.887l-15.345,4.346c-3.177,2.893-5.331,8.527-4.958,18.793c0.00,0.00, 0.829,34.928, 17.54,52.674
		c0.00,0.00, 33.178,48.66, 88.595,35.395L 160.00,160.00l 0.273,31.836l 64.207,64.12l 63.12,64.208L 320.00,320.019l-14.458,53.805
		c-13.265,55.417, 35.395,88.595, 35.395,88.595c 17.746,16.71, 52.674,17.54, 52.674,17.54C 403.877,480.332, 409.512,478.177, 412.404,475.00
		l 4.345-4.345l-20.887-18.384l-4.135-3.856c-36.572-30.722-10.375-57.564-10.375-57.564l 20.925-20.887l 0.001,0.001l 0.624-0.626
		l 0.626-0.625l0.00-0.001 l 20.886-20.923c0.00,0.00, 26.086-32.29, 55.564,12.375l 3.856,4.134l 18.384,20.887l 6.344-6.345
		c 3.178-2.893, 5.332-8.527, 4.959-18.794c0.00,0.00-0.829-34.927-17.541-52.674C 495.98,307.373, 462.804,258.714, 407.387,271.979z" data-tags="wrench" />
<glyph unicode="&#x2192;" d="M 408.671,327.78c0.00-49.912-44.136-115.082-44.136-115.082
		c-16.088-28.059-14.439-42.488-14.439-42.488c0.00-30.882-15.491-47.582-21.536-52.927c-3.659-1.489-10.24-5.072-10.24-9.268
		c0.00-4.106, 6.476-7.63, 10.016-9.173l0.00-4.195 c-3.54-1.541-10.016-5.066-10.016-9.174c0.00-4.16, 6.539-7.727, 10.152-9.235l 0.068-4.049
		c-3.647-1.491-10.221-5.072-10.221-9.259c0.00-4.305, 6.725-7.964, 10.54-9.376l 0.063-3.769c-3.849-1.393-10.604-5.069-10.604-9.399
		c0.00-4.331, 6.756-8.007, 10.604-9.399c-0.481-5.254-1.677-10.107-3.225-14.451c 0.143-0.058, 0.227-0.081, 0.227-0.081
		c-0.438-0.965-0.885-1.903-1.335-2.828c-4.949-12.047-12.151-19.467-12.151-19.467l 0.001,0.121
		c-24.996-30.884-57.056-27.326-57.056-27.326l 0.003,512.791c 5.112,0.307, 8.084,0.25, 8.084,0.25
		C 417.748,462.258, 408.671,327.78, 408.671,327.78z M 198.331-5.719l0.00-0.121 c0.00,0.00-7.201,7.42-12.15,19.467
		c-0.45,0.925-0.896,1.863-1.334,2.828c0.00,0.00, 0.084,0.023, 0.226,0.081c-1.546,4.344-2.743,9.197-3.224,14.451
		c 3.849,1.393, 10.605,5.068, 10.605,9.399c0.00,4.33-6.755,8.007-10.604,9.399l 0.064,3.769c 3.815,1.412, 10.54,5.071, 10.54,9.376
		c0.00,4.187-6.573,7.768-10.222,9.259l 0.068,4.049c 3.613,1.509, 10.154,5.075, 10.154,9.235c0.00,4.107-6.477,7.633-10.016,9.174l0.00,4.195 
		c 3.54,1.543, 10.016,5.066, 10.016,9.173c0.00,4.195-6.583,7.778-10.241,9.268c-6.046,5.345-21.538,22.045-21.538,52.927
		c0.00,0.00, 1.649,14.43-14.438,42.488c0.00,0.00-44.137,65.17-44.137,115.082c0.00,0.00-9.076,134.478, 145.20,152.215c0.00,0.00, 2.972,0.058, 8.084-0.25
		l 0.001-512.791C 255.385-33.045, 223.328-36.603, 198.331-5.719z" data-tags="lamp" />
<glyph unicode="&#x2193;" d="M 435.115,63.838L 287.83,63.838 l0.00-31.377 l 128.111,0.00 c 21.393,0.00, 31.908-17.318, 31.908-32.184
		S 434.834-32.00, 415.941-32.00L 95.52-32.00 c-14.86,0.00-31.909,11.333-31.909,32.277c0.00,20.556, 18.049,32.184, 32.909,32.184L 223.50,32.461 l0.00,31.306 L 76.898,63.767 
		c0.00,0.00-30.207,15.127-0.185,41.00l 84.787,86.636l-53.333-0.069c0.00,0.00-28.667,7.50, 1.374,41.784L 192.00,319.334l-55.50,0.00 
		c0.00,0.00-21.333,14.166, 4.00,44.833L 237.618,472.533c0.00,0.00, 12.882,17.633, 30.215,0.633l 104.00-111.667c0.00,0.00, 34.334-40.00-12.00-41.667L 325.68,319.832 
		l 75.022-84.999c0.00,0.00, 35.131-35.334, 0.034-42.959L 353.25,192.00l 82.441-88.461C 435.691,103.539, 462.833,83.50, 435.115,63.838z" data-tags="tree" />
<glyph unicode="&#x2194;" d="M 448.208,132.007c 0.033,0.049, 0.077,0.088, 0.109,0.147
		c-10.431-93.361-89.583-165.963-185.728-165.963C 159.338-33.809, 64.00,48.926, 64.00,152.166c0.00,33.004, 11.491,71.096, 26.50,98.00
		c 22.225,40.339, 53.113,57.521, 66.149,66.906c-13.565-13.565-14.149-50.24-14.149-50.24c-0.333-46.00, 42.00-42.161, 42.00-42.161
		c 53.333,11.495, 64.707,132.857, 64.707,132.857c0.00,81.082-58.792,121.623-58.792,121.623
		c 152.038-54.056, 141.226-158.108, 141.226-158.108c0.00-26.35-16.461-84.461-16.461-84.461c-19.68-123.082, 65.538-81.757, 65.538-81.757
		c 45.782,28.675, 34.384,70.356, 34.384,70.356C 454.709,196.216, 451.533,159.577, 448.208,132.007z M 156.649,317.073
		c 1.374,1.177, 2.812,2.207, 4.359,3.052C 161.008,320.125, 159.407,319.067, 156.649,317.073z" data-tags="fire" />
<glyph unicode="&#x2195;" d="M 457.90-33.00L 86.01-33.00 c-12.579,0.00-22.778,10.199-22.778,19.788L 63.232,453.228 
		C 63.232,468.812, 73.432,479.00, 86.01,479.00L 457.90,479.00 c 12.579,0.00, 22.778-10.188, 22.778-22.772l0.00-466.44 C 480.679-22.801, 470.479-33.00, 457.90-33.00z
		 M 415.945,393.228c0.00,12.579-10.199,22.772-22.778,22.772L 151.566,416.00 c-12.58,0.00-22.778-10.193-22.778-22.772l0.00-179.167 
		c0.00-12.579, 10.198-22.778, 22.778-22.778l 241.601,0.00 c 12.579,0.00, 22.778,10.199, 22.778,22.778L 415.945,393.228 z M 412.511,96.06L 320.25,96.06 l0.00-8.55 l-96.50,0.00 
		l0.00-15.562 l 96.50,0.00 l0.00-7.556 l 92.261,0.00 L 412.511,96.06 z" data-tags="oldmac" />
<glyph unicode="&#x2196;" d="M 416.00,176.00A48.00,48.00 180.00 1 1 512.00,176A48.00,48.00 180.00 1 1 416.00,176zM 424.688,192.938l-72.024,0.00 L 295.00,288.00l-32.111-192.50L 211.266,416.138l-44.328,0.112l-45.92-225.312L0.00,190.938 l0.00-31.723 l 150.994,0.00 
		l 37.752,193.177l 49.465-320.486L 285.00,31.953L 312.852,191.00l 19.484-30.785l 92.353,0.00 " data-tags="cardio" />
<glyph unicode="&#x2197;" d="M 512.00,480.00L 283.602,316.278c-8.744,2.612-18.008,4.021-27.602,4.021
	c-53.185,0.00-96.30-43.115-96.30-96.30c0.00-9.739, 1.451-19.139, 4.14-27.999L0.00-30.40l 226.835,162.602c 9.20-2.92, 18.998-4.501, 29.165-4.501
	c 53.185,0.00, 96.30,43.115, 96.30,96.30c0.00,10.151-1.575,19.933-4.486,29.121L 512.00,480.00z M 256.00,190.929c-18.266,0.00-33.071,14.809-33.071,33.071
	c0.00,18.265, 14.805,33.071, 33.071,33.071c 18.265,0.00, 33.071-14.806, 33.071-33.071C 289.071,205.737, 274.265,190.929, 256.00,190.929z" data-tags="compass" />
<glyph unicode="&#x2198;" d="M 255.984-34.924C 114.607-34.924,0.00,80.347,0.00,222.532
		C0.00,364.741, 114.607,480.00, 255.984,480.00C 397.361,480.00, 511.97,364.741, 511.97,222.532C 511.97,80.347, 397.361-34.924, 255.984-34.924z
		 M 135.499,126.642c 62.536-86.333, 183.714-48.104, 183.714-48.104L 109.751,289.749C 77.866,191.081, 135.499,126.642, 135.499,126.642z
		 M 374.93,320.721c-62.536,86.335-184.716,48.093-184.716,48.093l 210.464-210.211C 432.562,257.271, 374.93,320.721, 374.93,320.721z" data-tags="cancel" />
<glyph unicode="&#x2199;" d="M0.00,45.222c0.00,0.00, 199.379-126.536, 368.101,41.218c0.00,0.00, 80.229,62.061, 80.229,223.358
		c0.00,0.00, 50.504,16.038, 63.671,59.038c0.00,0.00-23.337-20.501-64.50-17.00c0.00,0.00, 41.75,22.415, 47.00,64.165c0.00,0.00-29.667-38.499-78.809-31.356
		c0.00,0.00-15.964,31.634-65.814,31.634c0.00,0.00-94.604-0.087-94.604-127.572c0.00,0.00-139.715-20.521-223.107,95.461c0.00,0.00-15.167-96.167, 33.00-160.00
		c0.00,0.00-38.167-1.666-63.666,31.667c0.00,0.00, 19.00-80.334, 94.50-96.014c0.00,0.00-29.50-8.653-64.00-0.641c0.00,0.00, 47.50-70.012, 128.837-62.907
		C 160.837,96.271, 102.834,35.167,0.00,45.222z" data-tags="twitter" />
<glyph unicode="&#x219b;" d="M 503.744,274.982c-33.914-42.149-74.147-0.324-74.147-0.324
		C 242.50,451.50, 79.459,272.063, 79.459,272.063c-34.238-34.228-64.544-3.915-64.544-3.915C-37.219,320.281, 67.475,383.445, 67.475,383.445
		c 201.692,143.721, 376.565,0.76, 376.565,0.759C 546.497,314.167, 503.744,274.982, 503.744,274.982z M 106.543,239.716
		c 162.716,112.617, 299.636-1.848, 299.636-1.848c 68.93-54.27, 32.638-90.544, 32.638-90.544c-35.317-44.824-79.257,4.919-79.257,4.919
		C 246.25,244.00, 150.902,149.714, 150.902,149.714c-41.735-47.214-78.752-3.303-78.752-3.303C 40.50,192.00, 106.543,239.716, 106.543,239.716z
		 M 210.792,109.536c 25.06,25.056, 65.674,25.056, 90.731,0.00c 25.059-25.054, 25.059-65.69, 0.004-90.746
		c-25.055-25.055-65.68-25.055-90.735,0.01C 185.731,43.866, 185.736,84.47, 210.792,109.536z" data-tags="wifi" />
<glyph unicode="&#x219c;" d="M 484.257,276.952L 328.767,431.123c0.00,0.00-12.813,18.128-40.749,18.024
		c0.00,0.00-64.856-4.647-64.856-71.891c0.00,0.00, 0.268-20.65, 24.665-45.432l 43.559-43.863L 56.742,287.90c0.00,0.00-58.035-0.506-57.741-66.869
		c0.00,0.00-0.012-61.117, 65.833-60.847l 226.563,0.048L 243.97,114.67c0.00,0.00-19.381-13.344-19.246-44.046c0.00,0.00-7.724-70.991, 72.02-70.991
		c0.00,0.00, 17.424-1.799, 37.396,22.826L 481.584,172.68c0.00,0.00, 29.415,20.32, 29.415,56.851C 510.999,229.53, 508.50,257.00, 484.257,276.952z" data-tags="arrow" />
<glyph unicode="&#x219d;" d="M 282.479,6.119c0.00,0.00, 213.353,154.031, 232.408,299.689
		c0.00,0.00, 7.409,122.933-107.588,137.976c0.00,0.00-83.466,20.89-148.421-61.594c0.00,0.00-55.197,54.877-113.973,62.559
		c0.00,0.00-126.91,10.108-143.237-114.689c0.00,0.00-38.372-137.881, 245.729-323.988C 247.398,6.072, 267.696-6.568, 282.479,6.119z" data-tags="heart" />
<glyph unicode="&#x219e;" d="M 394.308-32.00L 117.692-32.00 C 88.041-31.406, 64.00-7.641, 64.00,21.671L 64.00,427.168 
			c0.00,29.306, 24.041,53.079, 53.692,53.079l 276.616,0.00 C 423.974,480.247, 448.00,456.474, 448.00,427.168l0.00-405.498 
			C 448.00-7.641, 423.974-31.406, 394.308-32.00z M 160.00,224.00c 17.128,0.00, 31.008,13.885, 31.008,31.007c0.00,17.131-13.88,31.009-31.008,31.009
			c-17.125,0.00-31.009-13.878-31.009-31.009C 128.992,237.885, 142.876,224.00, 160.00,224.00z M 256.00,224.00c 17.128,0.00, 31.007,13.885, 31.007,31.007
			c0.00,17.131-13.879,31.009-31.007,31.009c-17.125,0.00-31.009-13.878-31.009-31.009C 224.992,237.885, 238.876,224.00, 256.00,224.00z M 352.00,224.00
			c 17.128,0.00, 31.008,13.885, 31.008,31.007c0.00,17.131-13.88,31.009-31.008,31.009c-17.125,0.00-31.009-13.878-31.009-31.009
			C 320.991,237.885, 334.875,224.00, 352.00,224.00z M 160.00,128.114c 17.128,0.00, 31.008,13.885, 31.008,31.007c0.00,17.131-13.88,31.009-31.008,31.009
			c-17.125,0.00-31.009-13.878-31.009-31.009C 128.992,141.999, 142.876,128.114, 160.00,128.114z M 256.00,128.114
			c 17.128,0.00, 31.007,13.885, 31.007,31.007c0.00,17.131-13.879,31.009-31.007,31.009c-17.125,0.00-31.009-13.878-31.009-31.009
			C 224.992,141.999, 238.876,128.114, 256.00,128.114z M 352.00,128.114c 17.128,0.00, 31.008,13.885, 31.008,31.007
			c0.00,17.131-13.88,31.009-31.008,31.009c-17.125,0.00-31.009-13.878-31.009-31.009C 320.991,141.999, 334.875,128.114, 352.00,128.114z
			 M 160.00,32.00c 17.128,0.00, 31.008,13.885, 31.008,31.007c0.00,17.131-13.88,31.603-31.008,31.603c-17.125,0.00-31.009-13.878-31.009-31.009
			C 128.992,46.479, 142.876,32.00, 160.00,32.00z M 256.00,32.00c 17.128,0.00, 31.007,13.885, 31.007,31.007c0.00,17.131-13.879,31.603-31.007,31.603
			c-17.125,0.00-31.009-14.472-31.009-31.603C 224.992,45.885, 238.876,32.00, 256.00,32.00z M 352.00,32.00c 17.128,0.00, 31.008,14.479, 31.008,31.601
			c0.00,17.131-13.88,31.009-31.008,31.009c-17.125,0.00-31.009-14.472-31.009-31.603C 320.991,45.885, 334.875,32.00, 352.00,32.00z M 384.00,416.00L 128.00,416.00 
			l0.00-94.016 l 256.00,0.00 L 384.00,416.00 z" data-tags="calc" />
<glyph unicode="&#x21a8;" d="M 466.889,480.00L 43.222,480.00 C 18.825,480.00,0.00,460.262,0.00,435.833l0.00-423.71 
	C0.00-12.218, 18.825-32.00, 43.222-32.00l 423.667,0.00 C 491.279-32.00, 512.00-12.218, 512.00,12.123L 512.00,435.833 C 512.00,460.262, 491.279,480.00, 466.889,480.00z
	 M 304.056,118.246l-65.739-65.74c-27.068-27.069-70.956-27.069-98.025-0.002l-56.854,56.854c-27.069,27.068-27.069,70.957,0.00,98.026
	l 65.171,65.171l 56.524,0.00 l-65.641-65.642c-24.397-24.394-31.192-60.93-6.794-85.325l 15.902-15.903
	c 24.396-24.395, 63.951-24.395, 88.347,0.00l 67.11,67.112L 304.057,118.246 z M 298.495,312.518c 12.323,12.327, 32.305,12.327, 44.626-0.001
	c 12.325-12.322, 12.325-32.298,0.00-44.625L 212.307,137.08c-12.323-12.33-32.304-12.33-44.626,0.00c-12.327,12.323-12.327,32.299,0.00,44.625
	L 298.495,312.518z M 427.965,242.151l-66.281-65.526l-54.552,0.00 l 61.624,60.871c 24.396,24.396, 28.172,60.176, 3.774,84.572l-19.676,19.676
	c-31.422,31.423-63.951,13.072-88.348-11.324l-57.135-57.136l0.00,58.033 l 65.714,65.713c 27.067,27.069, 70.956,27.069, 98.024,0.00
	l 56.854-56.854C 455.034,313.108, 455.034,269.22, 427.965,242.151z" data-tags="container_permalink" />
<glyph unicode="&#x20;" horiz-adv-x="256" />
<glyph class="hidden" unicode="&#xf000;" d="M0,480L 512 -32L0 -32 z" horiz-adv-x="0" />
</font>
</defs>
</svg>
